<svg width="11" height="16" viewBox="0 0 11 16" fill="none" xmlns="http://www.w3.org/2000/svg">
<path d="M5.5792 0C2.59316 0 0.163574 2.32946 0.163574 5.19165C0.163574 6.55472 0.783325 8.36738 2.00556 10.5794C2.98715 12.3555 4.12273 13.9615 4.71338 14.7606C4.81318 14.8971 4.94368 15.0082 5.09428 15.0847C5.24488 15.1612 5.41136 15.2011 5.58021 15.2011C5.74907 15.2011 5.91554 15.1612 6.06615 15.0847C6.21675 15.0082 6.34725 14.8971 6.44705 14.7606C7.03668 13.9615 8.17328 12.3555 9.15487 10.5794C10.3751 8.36806 10.9948 6.5554 10.9948 5.19165C10.9948 2.32946 8.56524 0 5.5792 0ZM5.5792 7.60085C5.15075 7.60085 4.73193 7.47349 4.37569 7.23486C4.01946 6.99623 3.7418 6.65706 3.57784 6.26024C3.41389 5.86342 3.37099 5.42677 3.45457 5.00551C3.53816 4.58424 3.74447 4.19729 4.04743 3.89358C4.35038 3.58986 4.73637 3.38303 5.15658 3.29924C5.5768 3.21544 6.01236 3.25845 6.40819 3.42282C6.80402 3.58718 7.14234 3.86553 7.38037 4.22266C7.6184 4.57979 7.74545 4.99966 7.74545 5.42918C7.74482 6.00495 7.51639 6.55696 7.11028 6.96409C6.70416 7.37122 6.15353 7.60022 5.5792 7.60085Z" fill="#FC1200"/>
</svg>
