<svg width="22" height="20" viewBox="0 0 22 20" fill="none" xmlns="http://www.w3.org/2000/svg">
<path d="M10.212 0.467539C10.3615 0.00641824 11.0139 0.0064175 11.1633 0.467538L13.263 6.94595C13.3299 7.15214 13.5219 7.2918 13.7387 7.2918H20.5361C21.0202 7.2918 21.2218 7.91097 20.8305 8.19595L15.3291 12.203C15.1543 12.3303 15.0812 12.5556 15.1478 12.7613L17.2487 19.2432C17.3981 19.7041 16.8703 20.0867 16.4787 19.8015L10.9821 15.798C10.8066 15.6702 10.5688 15.6702 10.3933 15.798L4.89671 19.8015C4.5051 20.0867 3.97733 19.7041 4.1267 19.2432L6.22754 12.7613C6.29422 12.5556 6.22108 12.3303 6.04627 12.203L0.544868 8.19596C0.153595 7.91097 0.355182 7.2918 0.839241 7.2918H7.6367C7.85344 7.2918 8.04551 7.15214 8.11234 6.94596L10.212 0.467539Z" fill="#FFC700"/>
</svg>
