<?xml version="1.0" encoding="utf-8"?>
<!-- Generator: Adobe Illustrator 22.0.0, SVG Export Plug-In . SVG Version: 6.00 Build 0)  -->
<svg version="1.1" id="Слой_1" xmlns="http://www.w3.org/2000/svg" xmlns:xlink="http://www.w3.org/1999/xlink" x="0px" y="0px"
	 viewBox="0 0 100 100" style="enable-background:new 0 0 100 100;" xml:space="preserve">
<style type="text/css">
	.st0{fill:url(#SVGID_1_);}
	.st1{fill:url(#SVGID_2_);}
	.st2{fill:#C1D6E3;}
	.st3{fill:#FCF6D2;}
	.st4{fill:url(#SVGID_3_);}
	.st5{fill:url(#SVGID_4_);}
	.st6{fill:#E9F4FC;}
	.st7{fill:url(#SVGID_5_);}
	.st8{fill:url(#SVGID_6_);}
	.st9{fill:url(#SVGID_7_);}
	.st10{fill:url(#SVGID_8_);}
	.st11{fill:url(#SVGID_9_);}
	.st12{fill:url(#SVGID_10_);}
	.st13{fill:url(#SVGID_11_);}
	.st14{fill:url(#SVGID_12_);}
</style>
<g>
	<g>
		<g>
			<g>
				<linearGradient id="SVGID_1_" gradientUnits="userSpaceOnUse" x1="48.4611" y1="63.7917" x2="79.6125" y2="63.7917">
					<stop  offset="0" style="stop-color:#1570A3"/>
					<stop  offset="1" style="stop-color:#B9D7E4"/>
				</linearGradient>
				<path class="st0" d="M59.1,48.4l20.6,22L52.1,79c-2.3,0.7-4.4-1.5-3.5-3.7L59.1,48.4z"/>
				<linearGradient id="SVGID_2_" gradientUnits="userSpaceOnUse" x1="89.1333" y1="47.2083" x2="59.8142" y2="65.002">
					<stop  offset="0" style="stop-color:#F28B6C"/>
					<stop  offset="1" style="stop-color:#C7586B"/>
				</linearGradient>
				<path class="st1" d="M58.1,50.4L77.4,71l0.5,0.6c0.8,0.8,2,0.9,2.8,0.1c0.8-0.7,0.8-2,0.1-2.8c0.3-0.2,0.5-0.4,0.8-0.7
					c6-5.6,6.3-15.1,0.7-21.1s-15.1-6.3-21.1-0.7c-0.3,0.2-0.5,0.5-0.7,0.7c-0.8-0.8-2-0.8-2.8,0c-0.8,0.8-0.9,2-0.1,2.8l0.3,0.3
					L58.1,50.4z"/>
			</g>
			<polygon class="st2" points="73.9,72.2 57.1,54.3 56.8,54.6 72.3,71.2 53.6,62.6 53.4,62.9 62.3,75 50.6,70.2 50.5,70.6 
				55.8,77.9 55.9,77.8 56.1,77.6 51.2,71 62.8,75.7 63.3,75.5 54.3,63.4 73.7,72.3 			"/>
		</g>
		<path class="st3" d="M79.2,52.9l1.3-2.2c0.2-0.3,0.6-0.4,0.9-0.2l0,0c0.3,0.2,0.4,0.6,0.2,0.9l-1.3,2.2c-0.2,0.3-0.6,0.4-0.9,0.2
			l0,0C79.1,53.6,79,53.2,79.2,52.9z"/>
		<path class="st3" d="M66.7,48.5l0.9-2.4c0.1-0.3,0.5-0.5,0.8-0.4l0,0c0.3,0.1,0.5,0.5,0.4,0.8L67.9,49c-0.1,0.3-0.5,0.5-0.8,0.4
			l0,0C66.7,49.2,66.5,48.9,66.7,48.5z"/>
		<path class="st3" d="M61.1,49.2l1,0.4c0.3,0.1,0.5,0.5,0.4,0.8l0,0c-0.1,0.3-0.5,0.5-0.8,0.4l-1-0.4c-0.3-0.1-0.5-0.5-0.4-0.8v0
			C60.4,49.2,60.8,49.1,61.1,49.2z"/>
		<path class="st3" d="M78.9,64.4l1.7,0.6c0.3,0.1,0.5,0.5,0.4,0.8l0,0c-0.1,0.3-0.5,0.5-0.8,0.4l-1.7-0.6c-0.3-0.1-0.5-0.5-0.4-0.8
			l0,0C78.2,64.5,78.6,64.3,78.9,64.4z"/>
		<path class="st3" d="M73.8,45.5l2.3,1c0.3,0.1,0.5,0.5,0.3,0.8l0,0c-0.1,0.3-0.5,0.5-0.8,0.3l-2.3-1c-0.3-0.1-0.5-0.5-0.3-0.8l0,0
			C73.1,45.5,73.5,45.4,73.8,45.5z"/>
		<path class="st3" d="M71.2,54.2l2.7-0.4c0.4-0.1,0.7,0.2,0.7,0.5l0,0c0.1,0.4-0.2,0.7-0.5,0.7l-2.7,0.4c-0.4,0.1-0.7-0.2-0.7-0.5
			l0,0C70.6,54.6,70.9,54.2,71.2,54.2z"/>
		<path class="st3" d="M82.5,60.6l-0.2-2.3c0-0.4,0.2-0.7,0.6-0.7l0,0c0.4,0,0.7,0.2,0.7,0.6l0.2,2.3c0,0.4-0.2,0.7-0.6,0.7l0,0
			C82.8,61.2,82.5,61,82.5,60.6z"/>
		<path class="st3" d="M72.7,61.9l-0.2-1.6c0-0.4,0.2-0.7,0.6-0.7l0,0c0.4,0,0.7,0.2,0.7,0.6l0.2,1.6c0,0.4-0.2,0.7-0.6,0.7l0,0
			C73.1,62.5,72.8,62.2,72.7,61.9z"/>
	</g>
	<g>
		<g>
			<g>
				
					<linearGradient id="SVGID_3_" gradientUnits="userSpaceOnUse" x1="29.142" y1="-27.2334" x2="15.3923" y2="-13.4837" gradientTransform="matrix(0.9756 -0.2196 0.2196 0.9756 20.9867 82.0231)">
					<stop  offset="0" style="stop-color:#DFF5FB"/>
					<stop  offset="0.2502" style="stop-color:#D3EEF6"/>
					<stop  offset="0.4634" style="stop-color:#C8E8F1"/>
					<stop  offset="1" style="stop-color:#AED8E6"/>
				</linearGradient>
				<path class="st4" d="M16.3,52.5l40.1-9l-8.9,38.2c-0.7,3.2-4.8,4.1-6.8,1.5L16.3,52.5z"/>
				
					<linearGradient id="SVGID_4_" gradientUnits="userSpaceOnUse" x1="60.4786" y1="81.1513" x2="48.751" y2="107.4374" gradientTransform="matrix(0.988 0.1546 -0.1546 0.988 -3.8956 -58.6104)">
					<stop  offset="0" style="stop-color:#F28B6C"/>
					<stop  offset="1" style="stop-color:#C7586B"/>
				</linearGradient>
				<path class="st5" d="M18,54.9l37.5-8.4l1-0.2c1.5-0.3,2.4-1.8,2.1-3.3c-0.3-1.4-1.7-2.3-3.2-2.1c-0.1-0.5-0.2-0.9-0.3-1.4
					c-2.5-11-13.4-17.9-24.4-15.4S12.8,37.4,15.3,48.4c0.1,0.5,0.2,0.9,0.4,1.4c-1.4,0.4-2.3,1.8-2,3.2c0.3,1.5,1.8,2.4,3.3,2.1
					l0.6-0.1L18,54.9z"/>
			</g>
			<polygon class="st6" points="54.5,51.4 21.9,58.8 22,59.4 52.2,52.6 29.1,68.6 29.5,69.1 49.8,66.9 36.1,77.4 36.5,77.9 
				48.7,76.6 48.7,76.5 48.6,76 37.4,77.2 50.9,66.9 51.1,66.2 30.6,68.3 54.4,51.7 			"/>
		</g>
		
			<linearGradient id="SVGID_5_" gradientUnits="userSpaceOnUse" x1="-6.8629" y1="-108.7612" x2="33.5791" y2="-140.9946" gradientTransform="matrix(0.8952 -0.4457 0.4457 0.8952 72.7664 161.0901)">
			<stop  offset="0" style="stop-color:#1570A3"/>
			<stop  offset="1" style="stop-color:#B9D7E4"/>
		</linearGradient>
		<path class="st7" d="M35.4,31.9l-1.6-3c-0.2-0.4-0.1-1,0.4-1.2l0,0c0.4-0.2,1-0.1,1.2,0.4l1.6,3c0.2,0.4,0.1,1-0.4,1.2l0,0
			C36.1,32.4,35.6,32.3,35.4,31.9z"/>
		
			<linearGradient id="SVGID_6_" gradientUnits="userSpaceOnUse" x1="-9.7719" y1="-24.2626" x2="30.7924" y2="-56.5935" gradientTransform="matrix(0.9756 -0.2196 0.2196 0.9756 20.9867 82.0231)">
			<stop  offset="0" style="stop-color:#1570A3"/>
			<stop  offset="1" style="stop-color:#B9D7E4"/>
		</linearGradient>
		<path class="st8" d="M21.7,43.6l-2.2-2.6c-0.3-0.4-0.3-0.9,0.1-1.2l0,0c0.4-0.3,0.9-0.3,1.2,0.1l2.2,2.6c0.3,0.4,0.3,0.9-0.1,1.2
			l0,0C22.5,44,22,43.9,21.7,43.6z"/>
		
			<linearGradient id="SVGID_7_" gradientUnits="userSpaceOnUse" x1="-8.4243" y1="-19.5759" x2="32.2045" y2="-51.9583" gradientTransform="matrix(0.9756 -0.2196 0.2196 0.9756 20.9867 82.0231)">
			<stop  offset="0" style="stop-color:#1570A3"/>
			<stop  offset="1" style="stop-color:#B9D7E4"/>
		</linearGradient>
		<path class="st9" d="M18.6,50.5l1.1-0.9c0.4-0.3,0.9-0.3,1.2,0.1l0,0c0.3,0.4,0.3,0.9-0.1,1.2l-1.1,0.9c-0.4,0.3-0.9,0.3-1.2-0.1
			l0,0C18.2,51.4,18.3,50.8,18.6,50.5z"/>
		
			<linearGradient id="SVGID_8_" gradientUnits="userSpaceOnUse" x1="3.0967" y1="-6.8501" x2="43.7794" y2="-39.2755" gradientTransform="matrix(0.9756 -0.2196 0.2196 0.9756 20.9867 82.0231)">
			<stop  offset="0" style="stop-color:#1570A3"/>
			<stop  offset="1" style="stop-color:#B9D7E4"/>
		</linearGradient>
		<path class="st10" d="M48.8,40.1l1.9-1.6c0.4-0.3,0.9-0.3,1.2,0.1v0c0.3,0.4,0.3,0.9-0.1,1.2l-1.9,1.6c-0.4,0.3-0.9,0.3-1.2-0.1
			l0,0C48.4,41,48.4,40.4,48.8,40.1z"/>
		
			<linearGradient id="SVGID_9_" gradientUnits="userSpaceOnUse" x1="175.6811" y1="237.8263" x2="216.165" y2="205.5594" gradientTransform="matrix(0.739 0.6737 -0.6737 0.739 24.5043 -263.4238)">
			<stop  offset="0" style="stop-color:#1570A3"/>
			<stop  offset="1" style="stop-color:#B9D7E4"/>
		</linearGradient>
		<path class="st11" d="M23.1,33.1l2.8-2.1c0.4-0.3,0.9-0.2,1.2,0.2l0,0c0.3,0.4,0.2,0.9-0.2,1.2l-2.8,2.1c-0.4,0.3-0.9,0.2-1.2-0.2
			h0C22.6,33.9,22.7,33.3,23.1,33.1z"/>
		
			<linearGradient id="SVGID_10_" gradientUnits="userSpaceOnUse" x1="17.5238" y1="-247.88" x2="58.168" y2="-280.2747" gradientTransform="matrix(0.6556 -0.7551 0.7551 0.6556 206.9215 256.9382)">
			<stop  offset="0" style="stop-color:#1570A3"/>
			<stop  offset="1" style="stop-color:#B9D7E4"/>
		</linearGradient>
		<path class="st12" d="M31.4,42.1l1.4-3.5c0.2-0.5,0.7-0.7,1.1-0.5h0c0.5,0.2,0.7,0.7,0.5,1.1l-1.4,3.5c-0.2,0.5-0.7,0.7-1.1,0.5
			l0,0C31.5,43.1,31.3,42.6,31.4,42.1z"/>
		
			<linearGradient id="SVGID_11_" gradientUnits="userSpaceOnUse" x1="-2.1009" y1="-13.7678" x2="38.4112" y2="-46.0572" gradientTransform="matrix(0.9756 -0.2196 0.2196 0.9756 20.9867 82.0231)">
			<stop  offset="0" style="stop-color:#1570A3"/>
			<stop  offset="1" style="stop-color:#B9D7E4"/>
		</linearGradient>
		<path class="st13" d="M46.8,33.3L44,32c-0.4-0.2-0.6-0.7-0.4-1.2v0c0.2-0.4,0.7-0.6,1.2-0.4l2.8,1.3c0.4,0.2,0.6,0.7,0.4,1.2l0,0
			C47.8,33.3,47.3,33.5,46.8,33.3z"/>
		
			<linearGradient id="SVGID_12_" gradientUnits="userSpaceOnUse" x1="-0.9724" y1="-9.4843" x2="39.5059" y2="-41.7467" gradientTransform="matrix(0.9756 -0.2196 0.2196 0.9756 20.9867 82.0231)">
			<stop  offset="0" style="stop-color:#1570A3"/>
			<stop  offset="1" style="stop-color:#B9D7E4"/>
		</linearGradient>
		<path class="st14" d="M41.5,45.6l-2-0.9c-0.4-0.2-0.6-0.7-0.4-1.2v0c0.2-0.4,0.7-0.6,1.2-0.4l2,0.9c0.4,0.2,0.6,0.7,0.4,1.2l0,0
			C42.5,45.6,42,45.8,41.5,45.6z"/>
	</g>
</g>
</svg>
